<svg width="311" height="90" viewBox="0 0 311 90" fill="none" xmlns="http://www.w3.org/2000/svg">
<path d="M83.0561 18.1818V72H71.6776V18.1818H83.0561ZM103.402 48.6648V72H92.2076V31.6364H102.877V38.7578H103.35C104.243 36.4103 105.741 34.5533 107.843 33.1868C109.945 31.8028 112.494 31.1108 115.49 31.1108C118.293 31.1108 120.737 31.724 122.822 32.9503C124.907 34.1766 126.527 35.9285 127.683 38.206C128.84 40.4659 129.418 43.1638 129.418 46.2997V72H118.223V48.2969C118.241 45.8267 117.61 43.8996 116.331 42.5156C115.052 41.1141 113.292 40.4134 111.049 40.4134C109.543 40.4134 108.211 40.7375 107.055 41.3857C105.916 42.0339 105.023 42.9799 104.374 44.2237C103.744 45.45 103.42 46.9304 103.402 48.6648ZM159.71 31.6364V40.0455H135.403V31.6364H159.71ZM140.921 21.9659H152.116V59.5966C152.116 60.6302 152.273 61.4361 152.589 62.0142C152.904 62.5748 153.342 62.969 153.903 63.1967C154.481 63.4245 155.147 63.5384 155.9 63.5384C156.425 63.5384 156.951 63.4946 157.477 63.407C158.002 63.3018 158.405 63.223 158.685 63.1705L160.446 71.5007C159.885 71.6759 159.097 71.8774 158.081 72.1051C157.065 72.3504 155.83 72.4993 154.376 72.5518C151.678 72.657 149.313 72.2978 147.281 71.4744C145.266 70.651 143.698 69.3722 142.577 67.6378C141.455 65.9034 140.904 63.7135 140.921 61.0682V21.9659ZM184.964 72.7884C180.812 72.7884 177.238 71.9474 174.242 70.2656C171.264 68.5663 168.969 66.1662 167.357 63.0653C165.746 59.947 164.94 56.2592 164.94 52.0021C164.94 47.8501 165.746 44.2062 167.357 41.0703C168.969 37.9344 171.238 35.4905 174.163 33.7386C177.107 31.9867 180.558 31.1108 184.517 31.1108C187.18 31.1108 189.659 31.54 191.954 32.3984C194.266 33.2393 196.281 34.5095 197.998 36.2088C199.732 37.9081 201.081 40.0455 202.045 42.6207C203.008 45.1785 203.49 48.1742 203.49 51.608V54.6825H169.407V47.745H192.952C192.952 46.1333 192.602 44.7055 191.901 43.4616C191.201 42.2178 190.228 41.2455 188.984 40.5447C187.758 39.8265 186.33 39.4673 184.701 39.4673C183.002 39.4673 181.495 39.8615 180.181 40.6499C178.885 41.4207 177.869 42.4631 177.133 43.777C176.397 45.0734 176.02 46.5187 176.003 48.1129V54.7088C176.003 56.706 176.371 58.4316 177.107 59.8857C177.86 61.3397 178.92 62.4609 180.286 63.2493C181.653 64.0376 183.273 64.4318 185.148 64.4318C186.392 64.4318 187.53 64.2566 188.564 63.9062C189.598 63.5559 190.482 63.0303 191.218 62.3295C191.954 61.6288 192.514 60.7704 192.9 59.7543L203.254 60.4375C202.728 62.9252 201.651 65.0975 200.021 66.9545C198.41 68.794 196.325 70.2306 193.767 71.2642C191.227 72.2803 188.292 72.7884 184.964 72.7884ZM210.795 72V31.6364H221.648V38.679H222.069C222.805 36.1738 224.04 34.2817 225.774 33.0028C227.509 31.7064 229.506 31.0582 231.766 31.0582C232.326 31.0582 232.931 31.0933 233.579 31.1633C234.227 31.2334 234.796 31.3298 235.287 31.4524V41.3857C234.761 41.228 234.034 41.0878 233.106 40.9652C232.177 40.8426 231.328 40.7812 230.557 40.7812C228.91 40.7812 227.438 41.1404 226.142 41.8587C224.863 42.5594 223.847 43.5405 223.094 44.8018C222.358 46.0632 221.99 47.5173 221.99 49.1641V72H210.795ZM264.804 31.6364V40.0455H239.892V31.6364H264.804ZM245.595 72V28.7195C245.595 25.7938 246.164 23.3674 247.303 21.4403C248.459 19.5133 250.036 18.0679 252.033 17.1044C254.03 16.1409 256.299 15.6591 258.839 15.6591C260.556 15.6591 262.124 15.7905 263.543 16.0533C264.979 16.316 266.048 16.5526 266.749 16.7628L264.752 25.1719C264.314 25.0317 263.771 24.9003 263.122 24.7777C262.492 24.6551 261.843 24.5938 261.178 24.5938C259.531 24.5938 258.383 24.9792 257.735 25.75C257.087 26.5033 256.763 27.5632 256.763 28.9297V72H245.595ZM278.554 87.1364C277.135 87.1364 275.804 87.0225 274.56 86.7947C273.334 86.5845 272.318 86.313 271.512 85.9801L274.034 77.6236C275.348 78.0265 276.531 78.2455 277.582 78.2805C278.651 78.3156 279.57 78.0703 280.341 77.5447C281.13 77.0192 281.769 76.1257 282.26 74.8643L282.917 73.1562L268.437 31.6364H280.21L288.566 61.2784H288.987L297.422 31.6364H309.274L293.586 76.3622C292.832 78.5346 291.807 80.4266 290.511 82.0384C289.232 83.6676 287.612 84.9202 285.65 85.7962C283.687 86.6896 281.322 87.1364 278.554 87.1364Z" fill="black"/>
<path d="M14.6453 19H41.9185L27.0961 42.1229H0.415771L14.6453 19Z" fill="#00BD7C"/>
<path d="M33.0252 44.4945L47.1704 21.9645L60.2985 45.6803L46.555 69.4699L33.0252 44.4945Z" fill="#00BD7C"/>
<path d="M27.5641 48.4093L41.5523 71.8221L14.0526 71.8221L0.415938 48.0536L27.5641 48.4093Z" fill="#00BD7C"/>
</svg>
